# xmcd
# Copyright (C) 1995-1998 Ti Kan
#
# Track frame offsets:
#       150
#       17232
#       32865
#       49295
#       67461
#       87461
#       103345
#       126701
#       146118
#       160040
#       177811
#       192864
#       208246
#
# Disc length: 3053 seconds
#
# Revision: 0
# Processed by: cddbd v1.5.2PL0 Copyright (c) Steve Scherf et al.
# Submitted via: CD-Transfer v1.0
#
DISCID=d20beb0d
DTITLE=Various Albert - Various Albert
DYEAR=06
DGENRE=
TTITLE0=Voglio Un Bel Natale
TTITLE1=Làlbero Di Natale
TTITLE2=Westlife - The Rose
TTITLE3=Avarage White Band Pick Up The Pieces (New Jazz Mix)
TTITLE4=Elisa And Ligabue Gli Ostacoli Del Cuore
TTITLE5=Tozzi Masini Come Si Fa
TTITLE6=Welcome To The Black Parade
TTITLE7=Dixie Chicks Everybody Knows
TTITLE8=We Are Family
TTITLE9=Keep On Loving You
TTITLE10=Your Heart Keeps Burning Royal Gigolos
TTITLE11=Emotional Rescue - Soul Bossa
TTITLE12=Start Me Up/Brown Suga Soul Bossa
EXTD=
EXTT0=
EXTT1=
EXTT2=
EXTT3=
EXTT4=
EXTT5=
EXTT6=
EXTT7=
EXTT8=
EXTT9=
EXTT10=
EXTT11=
EXTT12=
PLAYORDER=
